Patient4_TMGait_0pt6_01_left_22_EMG.mot
version=1
nRows=16
nColumns=33
inDegrees=no
endheader
time	1LAddLong	2LGlutMax	3LGlutMed	4LIliopsoas	5LSemiMemb	6LBicFemLong	7LRecFem	8LVastMed	9LVastLat	10LGasMed	11LTibAnt	12lTibPost	13LPeroneusLong	14LSol	15LExtDigLong	16LFlexDigLong	17RAddLong	18RGlutMax	19RGlutMed	20RIliopsoas	21RSemiMemb	22RBicFemLong	23RRecFem	24RVastMed	25RVastLat	26RGasMed	27RTibAnt	28RTibPost	29RPeroneusLong	30RSol	31RExtDigLong	32RFlexDigLong
27.195	0.007477	0.1564	0.17181	0.010529	0.004883	-0.13123	0.060883	-0.028534	-0.014648	0.013123	-0.058441	-0.012665	0.10452	0.036621	-0.029602	0.011292	-0.040588	-0.4039	-0.35126	0.030212	-0.074921	-0.044861	0.34149	0.004272	-0.002747	-0.012817	0.023804	0.001068	0.060272	-0.11459	0.002747	-0.010529
27.196	0.001678	0.054016	0.029144	0.008545	0.004272	-0.094757	0.035706	0.003967	-0.045776	0.20889	-0.080566	-0.010223	0.51285	-0.15671	0.039673	-0.02655	-0.035858	-0.38269	-0.38864	0.035858	-0.12238	-0.03952	0.33478	0.012054	0.014954	-0.010376	0.000763	-0.003357	0.078888	-0.10544	0.001831	-0.01236
27.197	-0.01358	0.023193	-0.055695	0.001831	-0.033875	-0.29327	-0.028839	0.00885	-0.049438	0.12116	-0.012665	-0.008545	0.91095	-0.25497	0.003204	0.018768	-0.002747	-0.30289	-0.32394	0.004578	-0.14404	0.07019	0.30716	-0.028687	0.000916	0.007629	0.01709	-0.000305	-0.063324	-0.085449	0.001831	-0.012665
27.198	-0.022583	-0.012054	0.041351	-0.02594	-0.17303	-0.15823	-0.0737	0.012665	-0.063324	-0.03891	0.090332	-0.009613	-0.86258	-0.11169	0.063477	0.066986	-0.037537	-0.26199	-0.24216	-0.1239	-0.16434	0.14633	0.25452	-0.017548	0.014648	0.02594	0.038605	-0.003815	-0.17425	-0.07019	0.001068	-0.020447
27.199	-0.0383	0.000305	0.021362	-0.020447	-0.33386	0.005341	-0.11551	0.02121	-0.015564	-0.085754	0.085297	-0.017548	-0.83557	0.12482	0.060425	0.008392	-0.046997	-0.37155	-0.30197	-0.21103	-0.15305	0.057373	0.28519	-0.014191	0.010529	0.021362	0.051117	-0.000916	-0.336	-0.045624	-0.003662	-0.013733
27.2	-0.00885	-0.018158	0.09079	-0.007782	-0.32623	0.13412	-0.15335	0.007782	-0.032959	-0.04425	0.031891	-0.012207	0.075836	0.35828	0.066376	-0.009003	-0.043488	-0.40985	-0.38132	-0.10712	-0.16266	0.030365	0.27985	0.001373	0.017395	-0.000305	0.044403	0.000458	-0.39642	0.017548	-0.005951	-0.016479
27.201	0.020447	-0.027618	0.012665	-0.003204	-0.22217	0.22247	-0.16373	-0.00412	-0.10696	0.26504	-0.030975	-0.022736	0.39566	0.079956	-0.075378	-0.021667	-0.002289	-0.34073	-0.23804	-0.061646	-0.1178	-0.045624	0.298	-0.014801	0.006409	-0.005188	0.04776	-0.003967	-0.40543	0.11246	-0.00351	-0.007629
27.202	0.047302	-0.082397	0.016174	0.002747	-0.002594	0.1503	-0.16281	-0.010071	0.070038	0.41916	-0.007629	-0.027313	-0.11826	-0.090485	-0.13916	-0.00351	0.01297	-0.37766	-0.3093	0.056	-0.061646	-0.095062	0.35751	-0.03418	0.014191	-0.003815	0.049133	-0.003662	-0.33188	0.097961	-0.002136	-0.005035
27.203	0.071106	-0.12756	-0.026398	0.009155	0.13077	0.012054	-0.18662	-0.014343	0.11231	0.38879	-0.046692	-0.02655	-0.12131	-0.023193	-0.36392	-0.023956	0.062866	-0.47531	-0.56442	0.19089	-0.075073	-0.066986	0.3096	-0.10956	-0.005341	-0.007477	0.028992	-0.007935	-0.092621	-0.040741	-0.003967	-0.012054
27.204	0.071869	-0.11261	-0.044708	0.014801	0.28793	-0.14008	-0.23086	-0.021973	0.12466	0.4422	-0.029449	-0.026703	-0.093536	-0.07431	-0.11902	-0.014496	0.082397	-0.50583	-0.4541	0.24979	-0.12024	-0.098572	0.30823	-0.11231	-0.006104	-0.017395	0.024567	-0.000305	0.23956	-0.22095	-0.007324	-0.006561
27.205	0.066986	-0.13321	-0.085449	0.010681	0.25925	-0.33783	-0.18295	-0.013428	0.082245	0.33783	-0.008545	-0.011444	0.14496	-0.26977	0.14786	-0.021057	0.057983	-0.56458	-0.38361	0.15701	-0.14542	-0.096283	0.33112	-0.079346	0.012665	-0.035553	0.015717	-0.007935	0.30655	-0.26047	-0.005646	-0.00946
27.206	0.04837	-0.18326	-0.12253	0.005798	0.16907	-0.33005	-0.084839	0.017548	0.11627	0.12009	0.035553	-0.005341	0.15778	-0.18463	0.13534	-0.017395	0.013428	-0.56702	-0.39764	0.11658	-0.103	-0.077057	0.30838	-0.057678	0.004272	-0.007935	0.009766	-0.005341	0.27679	-0.19272	-0.003967	-0.016327
27.207	0.0383	-0.24292	-0.076599	-0.005951	0.11215	-0.27893	-0.017395	0.011749	0.090637	0.40771	0.015106	-0.018311	0.60913	-0.16953	0.12955	-0.008698	0.053864	-0.59097	-0.42191	0.072021	-0.09201	-0.15762	0.34058	-0.13321	-0.024109	0.007019	0.001068	-0.007935	0.19363	-0.15595	-0.00351	-0.016937
27.208	0.02655	-0.26367	-0.040588	0.028381	0.068665	-0.19501	0.025787	0.015717	-0.11169	0.22995	0.003967	-0.029144	0.1181	-0.21683	0.18875	-0.015869	0.068359	-0.62531	-0.27847	0.03418	-0.11932	-0.080719	0.36346	-0.085602	-0.016937	0.005341	0.03479	-0.003815	0.04425	-0.14374	-0.005188	-0.015717
27.209	0.032043	-0.21408	-0.061493	-0.00061	0.028534	-0.10315	-0.03952	0.014801	-0.38895	0.014496	-0.007935	-0.03418	-0.35126	-0.19089	0.34195	-0.019073	0.12222	-0.50736	-0.27481	0.000153	-0.11505	-0.028381	0.37186	-0.14908	-0.024872	-0.00061	0.029907	-0.008698	-0.027008	-0.060883	-0.001068	-0.016022
27.21	0.016785	-0.22705	-0.041962	-0.006866	-0.000763	0.032501	-0.096283	0.016632	-0.55405	0.28275	-0.026245	-0.020294	-0.45715	-0.18997	0.24689	-0.001831	0.1329	-0.43243	-0.24811	-0.027466	-0.14328	-0.069885	0.37918	-0.13626	-0.02182	0.002136	0.011902	-0.00061	-0.004425	0.094604	-0.003357	-0.014038
